<svg xmlns="http://www.w3.org/2000/svg" viewBox="0 0 400 500">
  <rect width="400" height="500" rx="28" fill="#FDFCFA"/>
  <g transform="translate(200, 200)">
    <circle cx="0" cy="0" r="118" fill="none" stroke="#E8E4DC" stroke-width="0.8"/>
    <circle cx="0" cy="0" r="78" fill="none" stroke="#EDEAE3" stroke-width="0.5"/>
    <circle cx="0" cy="0" r="44" fill="#FDF9F4" stroke="#EDEAE3" stroke-width="0.5"/>
    <g fill="#EDE8E0">
      <polygon points="0,-116 -4,-62 0,-68 4,-62" transform="rotate(22.5 0 0)"/>
      <polygon points="0,-116 -4,-62 0,-68 4,-62" transform="rotate(67.5 0 0)"/>
      <polygon points="0,-116 -4,-62 0,-68 4,-62" transform="rotate(112.5 0 0)"/>
      <polygon points="0,-116 -4,-62 0,-68 4,-62" transform="rotate(157.5 0 0)"/>
      <polygon points="0,-116 -4,-62 0,-68 4,-62" transform="rotate(202.5 0 0)"/>
      <polygon points="0,-116 -4,-62 0,-68 4,-62" transform="rotate(247.5 0 0)"/>
      <polygon points="0,-116 -4,-62 0,-68 4,-62" transform="rotate(292.5 0 0)"/>
      <polygon points="0,-116 -4,-62 0,-68 4,-62" transform="rotate(337.5 0 0)"/>
    </g>
    <g fill="#C8C2B8">
      <polygon points="0,-116 -9,-46 0,-56 9,-46" transform="rotate(45 0 0)"/>
      <polygon points="0,-116 -9,-46 0,-56 9,-46" transform="rotate(135 0 0)"/>
      <polygon points="0,-116 -9,-46 0,-56 9,-46" transform="rotate(225 0 0)"/>
      <polygon points="0,-116 -9,-46 0,-56 9,-46" transform="rotate(315 0 0)"/>
    </g>
    <polygon points="0,-116 -13,-14 0,-30 13,-14" fill="#8C5A28"/>
    <polygon points="0,116 -13,16 0,30 13,16" fill="#8C5A28"/>
    <polygon points="116,0 16,-14 30,0 16,14" fill="#8C5A28"/>
    <polygon points="-116,0 -16,-14 -30,0 -16,14" fill="#8C5A28"/>
    <circle cx="0" cy="0" r="20" fill="#FDF9F4" stroke="#D3C5B0" stroke-width="1"/>
    <circle cx="0" cy="0" r="13" fill="#FDF9F4" stroke="#8C5A28" stroke-width="1.2"/>
    <circle cx="0" cy="0" r="4.5" fill="#8C5A28"/>
    <text x="0" y="-130" text-anchor="middle" font-family="Georgia, serif" font-size="18" fill="#8C5A28" font-weight="700" letter-spacing="1">N</text>
    <text x="0" y="148" text-anchor="middle" font-family="Georgia, serif" font-size="14" fill="#C8C2B8">S</text>
    <text x="134" y="5" text-anchor="middle" font-family="Georgia, serif" font-size="14" fill="#C8C2B8">E</text>
    <text x="-134" y="5" text-anchor="middle" font-family="Georgia, serif" font-size="14" fill="#C8C2B8">O</text>
  </g>
  <line x1="120" y1="365" x2="280" y2="365" stroke="#8C5A28" stroke-width="0.6" opacity="0.4"/>
  <text x="200" y="400" text-anchor="middle" font-family="Georgia, serif" font-style="italic" font-weight="300" font-size="52" fill="#1A1814">Atlas</text>
  <text x="200" y="430" text-anchor="middle" font-family="Georgia, serif" font-size="13" fill="#8C5A28" letter-spacing="5">RÉPERTOIRE DE LIEUX</text>
  <line x1="80" y1="448" x2="150" y2="448" stroke="#D3C5B0" stroke-width="0.6"/>
  <circle cx="200" cy="448" r="3" fill="#8C5A28" opacity="0.5"/>
  <line x1="250" y1="448" x2="320" y2="448" stroke="#D3C5B0" stroke-width="0.6"/>
</svg>
